<svg xmlns="http://www.w3.org/2000/svg" viewBox="0 0 1024 1024" width="1024" height="1024">
  <rect width="1024" height="1024" fill="#111111"/>
  <path d="M 122.4 664.9H 62.0V 358.2H 122.4V 239.3H 181.8V 179.9H 240.3V 121.4H 359.1V 62.0H 664.9V 121.4H 783.7V 179.9H 843.2V 239.3H 901.6V 358.2H 961.0V 664.9H 901.6V 782.8H 843.2V 842.2H 783.7V 902.6H 664.9V 962.0H 359.1V 902.6H 240.3V 842.2H 181.8V 782.8H 122.4ZM 250.8 773.2V 831.6H 369.7V 891.1H 655.3V 831.6H 773.2V 773.2H 832.6V 654.3H 891.1V 368.7H 832.6V 249.9H 773.2V 190.4H 655.3V 131.0H 369.7V 190.4H 250.8V 249.9H 191.4V 368.7H 132.9V 654.3H 191.4V 773.2ZM 299.7 605.5H 240.3V 417.6H 299.7V 298.7H 418.5V 239.3H 606.4V 298.7H 724.3V 417.6H 783.7V 605.5H 724.3V 723.3H 606.4V 782.8H 418.5V 723.3H 299.7Z" fill="#e0e0e0" fill-rule="evenodd"/>
</svg>